<svg width="16" height="16" viewBox="0 0 16 16" fill="none" xmlns="http://www.w3.org/2000/svg">
<path d="M12.4257 10.9002V7.16349C12.4252 6.16888 12.0894 5.20349 11.4727 4.42317C10.856 3.64285 9.99427 3.09315 9.0267 2.86282V2.53449C9.0267 2.26025 8.91776 1.99725 8.72385 1.80334C8.52993 1.60943 8.26693 1.50049 7.9927 1.50049C7.71846 1.50049 7.45546 1.60943 7.26155 1.80334C7.06764 1.99725 6.9587 2.26025 6.9587 2.53449V2.86682C5.99451 3.09982 5.13662 3.65014 4.52284 4.42938C3.90906 5.20862 3.57502 6.17155 3.57436 7.16349V10.9002L2.17236 12.3022V12.9498H13.8277V12.3022L12.4257 10.9002Z" stroke="white" stroke-width="0.7" stroke-linecap="round" stroke-linejoin="round"/>
<path d="M6.44206 12.9497C6.43905 13.1552 6.47693 13.3593 6.55349 13.5501C6.63006 13.7408 6.74379 13.9145 6.88807 14.0609C7.03234 14.2073 7.20429 14.3235 7.3939 14.4029C7.58351 14.4822 7.78701 14.5231 7.99256 14.5231C8.19811 14.5231 8.40161 14.4822 8.59122 14.4029C8.78084 14.3235 8.95278 14.2073 9.09706 14.0609C9.24133 13.9145 9.35506 13.7408 9.43163 13.5501C9.5082 13.3593 9.54607 13.1552 9.54306 12.9497" stroke="white" stroke-width="0.7" stroke-linecap="round" stroke-linejoin="round"/>
</svg>
