<svg width="14" height="14" viewBox="0 0 14 14" fill="none" xmlns="http://www.w3.org/2000/svg">
<path d="M6.002 13.9451C5.17267 13.9451 4.39267 13.7877 3.662 13.4731C2.93178 13.158 2.29644 12.7304 1.756 12.1904C1.21556 11.6504 0.787778 11.0157 0.472667 10.2864C0.157556 9.55707 0 8.77729 0 7.94707C0 7.11685 0.157556 6.33685 0.472667 5.60707C0.787778 4.87685 1.21533 4.24151 1.75533 3.70107C2.29533 3.16062 2.93022 2.73285 3.66 2.41773C4.38978 2.10262 5.16978 1.94507 6 1.94507C6.29422 1.94507 6.58111 1.96729 6.86067 2.01173C7.14067 2.05618 7.41778 2.1184 7.692 2.1984C7.62978 2.29173 7.57911 2.39173 7.54 2.4984C7.50089 2.60507 7.46867 2.71396 7.44333 2.82507C7.20422 2.7584 6.96644 2.70596 6.73 2.66773C6.494 2.6304 6.25067 2.61173 6 2.61173C4.51111 2.61173 3.25 3.1284 2.21667 4.16173C1.18333 5.19507 0.666667 6.45618 0.666667 7.94507C0.666667 9.43396 1.18333 10.6951 2.21667 11.7284C3.25 12.7617 4.51111 13.2784 6 13.2784C7.48889 13.2784 8.75 12.7617 9.78333 11.7284C10.8167 10.6951 11.3333 9.43396 11.3333 7.94507C11.3333 7.69485 11.3147 7.45151 11.2773 7.21507C11.2396 6.97862 11.1873 6.74085 11.1207 6.50174C11.2318 6.47685 11.34 6.44262 11.4453 6.39907C11.5507 6.35551 11.6509 6.30662 11.746 6.2524C11.8264 6.52707 11.8889 6.8044 11.9333 7.0844C11.9778 7.3644 12 7.65129 12 7.94507C12 8.77529 11.8427 9.55529 11.528 10.2851C11.2133 11.0148 10.786 11.65 10.246 12.1904C9.706 12.7308 9.07111 13.1582 8.34133 13.4724C7.61156 13.7866 6.83178 13.9442 6.002 13.9451Z" fill="#00C853"/>
<path d="M13.1667 0.5L6.5 7.17333L4.5 5.17333" stroke="#00C853" stroke-linecap="round" stroke-linejoin="round"/>
</svg>
