<svg width="38" height="39" viewBox="0 0 38 39" fill="none" xmlns="http://www.w3.org/2000/svg">
<path d="M19 4.2096L19.197 3.82305C19.1347 3.80063 19.0677 3.78906 19 3.78906C18.9323 3.78906 18.8653 3.80063 18.803 3.82305L19 4.2096ZM19 19.3357L18.752 19.7004C18.8275 19.7366 18.913 19.7557 19 19.7557C19.087 19.7557 19.1725 19.7366 19.248 19.7004L19 19.3357ZM18.802 3.82305L12.409 6.12557L12.803 6.89868L19.197 4.59616L18.802 3.82305ZM11.5 7.28523V13.0483H12.5V7.28523H11.5ZM14.775 17.7911L18.752 19.7004L19.248 18.9709L15.271 17.0609L14.775 17.7911ZM19.248 19.7004L23.225 17.7911L22.729 17.0609L18.752 18.9709L19.248 19.7004ZM26.5 13.0483V7.28523H25.5V13.0499L26.5 13.0483ZM25.59 6.12641L19.197 3.82305L18.803 4.59616L25.197 6.89868L25.59 6.12641ZM26.5 7.28523C26.4998 7.03857 26.4135 6.79653 26.2517 6.5907C26.0899 6.38486 25.8599 6.22343 25.59 6.12641L25.197 6.89868C25.287 6.9311 25.3637 6.98502 25.4176 7.05373C25.4714 7.12245 25.5001 7.20295 25.5 7.28523H26.5ZM23.225 17.7911C24.22 17.3133 25.0469 16.623 25.6221 15.7901C26.1972 14.9571 26.5001 14.0112 26.5 13.0483H25.5C25.5 13.863 25.2436 14.6632 24.757 15.3679C24.2704 16.0726 23.5708 16.6566 22.729 17.0609L23.225 17.7911ZM11.5 13.0483C11.4999 14.0112 11.8028 14.9571 12.3779 15.7901C12.9531 16.623 13.78 17.3133 14.775 17.7911L15.271 17.0609C14.4292 16.6566 13.7296 16.0726 13.243 15.3679C12.7564 14.6632 12.5 13.863 12.5 13.0483H11.5ZM12.41 6.12641C12.1401 6.22343 11.9101 6.38486 11.7483 6.5907C11.5865 6.79653 11.5002 7.03857 11.5 7.28523H12.5C12.5 7.11717 12.62 6.96591 12.803 6.89868L12.41 6.12641Z" fill="#333CF5"/>
</svg>
