<svg width="24" height="24" viewBox="0 0 24 24" fill="none" xmlns="http://www.w3.org/2000/svg">
<path d="M12.0581 19.9999C9.83611 19.9999 7.94711 19.2219 6.39111 17.6659C4.83511 16.1099 4.05744 14.2212 4.05811 11.9999C4.05811 10.3532 4.52911 8.84156 5.47111 7.4649C6.41377 6.0869 7.75044 5.0959 9.48111 4.4919C9.68511 4.42056 9.86377 4.4019 10.0171 4.4359C10.1704 4.4699 10.2974 4.53623 10.3981 4.6349C10.4988 4.73356 10.5628 4.86023 10.5901 5.0149C10.6168 5.17023 10.5958 5.33323 10.5271 5.5039C10.3978 5.8219 10.3038 6.1439 10.2451 6.4699C10.1864 6.7959 10.1574 7.13923 10.1581 7.4999C10.1581 9.2779 10.7801 10.7889 12.0241 12.0329C13.2681 13.2769 14.7794 13.8992 16.5581 13.8999C17.0234 13.8999 17.4491 13.8506 17.8351 13.7519C18.2218 13.6532 18.5511 13.5732 18.8231 13.5119C18.9684 13.4852 19.1014 13.4886 19.2221 13.5219C19.3428 13.5552 19.4391 13.6139 19.5111 13.6979C19.5898 13.7812 19.6431 13.8839 19.6711 14.0059C19.6978 14.1279 19.6818 14.2669 19.6231 14.4229C19.1464 16.0562 18.2121 17.3939 16.8201 18.4359C15.4281 19.4779 13.8408 19.9992 12.0581 19.9999ZM12.0581 18.9999C13.5248 18.9999 14.8414 18.5956 16.0081 17.7869C17.1748 16.9782 18.0248 15.9242 18.5581 14.6249C18.2248 14.7082 17.8914 14.7749 17.5581 14.8249C17.2248 14.8749 16.8914 14.8999 16.5581 14.8999C14.5081 14.8999 12.7621 14.1792 11.3201 12.7379C9.87811 11.2966 9.15744 9.55056 9.15811 7.4999C9.15811 7.16656 9.18311 6.83323 9.23311 6.4999C9.28311 6.16656 9.34977 5.83323 9.43311 5.4999C8.13311 6.03323 7.07877 6.88323 6.27011 8.0499C5.46144 9.21656 5.05744 10.5332 5.05811 11.9999C5.05811 13.9332 5.74144 15.5832 7.10811 16.9499C8.47477 18.3166 10.1248 18.9999 12.0581 18.9999Z" fill="#757575"/>
</svg>
