<svg width="32" height="32" viewBox="0 0 32 32" fill="none" xmlns="http://www.w3.org/2000/svg">
<path d="M10.3332 18.467L13.5332 21.667M10.3332 18.467C10.3332 18.467 12.2225 13.7443 14.9118 10.467M10.3332 18.467C3.3745 16.727 9.6265 10.467 14.9118 10.467M13.5332 21.667C13.5332 21.667 18.2558 19.7777 21.5332 17.0883M13.5332 21.667C15.2732 28.6243 21.5332 22.3737 21.5332 17.0883M14.9118 10.467C17.6318 7.15233 22.1158 5.66699 26.3332 5.66699C26.3332 9.88433 24.8478 14.367 21.5332 17.0883M19.2665 12.6097L20.2092 11.667M7.3585 22.1017C6.08917 23.1697 5.6665 26.3403 5.6665 26.3403C5.6665 26.3403 8.82917 25.9163 9.8945 24.6443C10.4945 23.9323 10.4865 22.839 9.8185 22.1777C9.48824 21.8672 9.05593 21.6882 8.60289 21.6742C8.14984 21.6602 7.7073 21.8122 7.3585 22.1017Z" stroke="white" stroke-width="2" stroke-linecap="round" stroke-linejoin="round"/>
</svg>
