<svg width="16" height="16" viewBox="0 0 16 16" fill="none" xmlns="http://www.w3.org/2000/svg">
<path d="M2.33312 5.33338C2.33325 4.70133 2.49677 4.08004 2.8078 3.5298C3.11883 2.97957 3.56682 2.51908 4.10828 2.19303C4.64974 1.86697 5.2663 1.68642 5.89811 1.66889C6.52993 1.65136 7.15554 1.79746 7.71425 2.093C8.27296 2.38853 8.74578 2.82348 9.08684 3.35562C9.4279 3.88776 9.6256 4.49903 9.66077 5.13011C9.69595 5.76119 9.56739 6.39064 9.28757 6.95739C9.00776 7.52414 8.5862 8.00893 8.06379 8.36472C9.18879 8.77734 10.1646 9.51719 10.8655 10.4891C11.5665 11.4609 11.9606 12.6203 11.9971 13.818C11.9956 13.9472 11.9442 14.0707 11.8537 14.1629C11.7632 14.255 11.6406 14.3086 11.5115 14.3125C11.3824 14.3163 11.2568 14.2702 11.161 14.1836C11.0651 14.0971 11.0064 13.9769 10.9971 13.848C10.9574 12.549 10.4135 11.3165 9.48057 10.4117C8.54766 9.50682 7.29909 9.00078 5.99946 9.00078C4.69982 9.00078 3.45125 9.50682 2.51834 10.4117C1.58543 11.3165 1.04149 12.549 1.00179 13.848C0.995114 13.9786 0.937574 14.1014 0.841495 14.19C0.745417 14.2786 0.618441 14.3261 0.487771 14.3223C0.357101 14.3185 0.23313 14.2636 0.142417 14.1695C0.0517028 14.0754 0.00146147 13.9494 0.00245589 13.8187C0.0388235 12.6209 0.43286 11.4613 1.13385 10.4893C1.83483 9.51733 2.81068 8.77738 3.93579 8.36472C3.44184 8.02831 3.03761 7.57626 2.75828 7.04793C2.47895 6.5196 2.333 5.93101 2.33312 5.33338ZM5.99979 2.66672C5.29254 2.66672 4.61427 2.94767 4.11417 3.44776C3.61407 3.94786 3.33312 4.62614 3.33312 5.33338C3.33312 6.04063 3.61407 6.7189 4.11417 7.219C4.61427 7.7191 5.29254 8.00005 5.99979 8.00005C6.70703 8.00005 7.38531 7.7191 7.88541 7.219C8.3855 6.7189 8.66646 6.04063 8.66646 5.33338C8.66646 4.62614 8.3855 3.94786 7.88541 3.44776C7.38531 2.94767 6.70703 2.66672 5.99979 2.66672ZM11.5265 5.33338C11.4282 5.33338 11.3318 5.34005 11.2371 5.35338C11.171 5.36522 11.1032 5.36362 11.0378 5.34868C10.9723 5.33374 10.9105 5.30577 10.8561 5.26644C10.8017 5.22711 10.7557 5.17722 10.721 5.11974C10.6863 5.06227 10.6635 4.99839 10.654 4.93192C10.6445 4.86545 10.6485 4.79775 10.6658 4.73285C10.683 4.66796 10.7131 4.6072 10.7543 4.5542C10.7956 4.5012 10.8471 4.45705 10.9057 4.42438C10.9644 4.39171 11.029 4.37119 11.0958 4.36405C11.7588 4.26819 12.4349 4.39551 13.0177 4.726C13.6005 5.05648 14.0568 5.57136 14.3149 6.1896C14.5729 6.80784 14.6181 7.49435 14.4433 8.14108C14.2685 8.78781 13.8835 9.35804 13.3491 9.76205C14.1347 10.1138 14.8017 10.6854 15.2697 11.4078C15.7377 12.1302 15.9866 12.9726 15.9865 13.8334C15.9865 13.966 15.9338 14.0932 15.84 14.1869C15.7462 14.2807 15.6191 14.3334 15.4865 14.3334C15.3538 14.3334 15.2267 14.2807 15.1329 14.1869C15.0391 14.0932 14.9865 13.966 14.9865 13.8334C14.9867 13.0894 14.7471 12.3652 14.3033 11.7681C13.8594 11.171 13.2349 10.7329 12.5225 10.5187L12.1665 10.4121V9.29472L12.4398 9.15538C12.845 8.95015 13.1691 8.61435 13.36 8.20221C13.5508 7.79007 13.5972 7.32564 13.4917 6.88389C13.3861 6.44214 13.1348 6.04886 12.7782 5.76753C12.4216 5.48621 11.9806 5.33326 11.5265 5.33338Z" fill="white"/>
</svg>
