<svg width="16" height="16" viewBox="0 0 16 16" fill="none" xmlns="http://www.w3.org/2000/svg">
<path d="M13.3335 8.66667C13.3335 10.14 12.7368 11.4733 11.7715 12.438L12.7142 13.3807C13.3341 12.7623 13.8258 12.0275 14.1609 11.2185C14.496 10.4095 14.6679 9.5423 14.6668 8.66667C14.6668 4.98467 11.6822 2 8.00017 2C4.31817 2 1.3335 4.98467 1.3335 8.66667C1.33242 9.5423 1.50437 10.4095 1.83947 11.2185C2.17457 12.0275 2.66622 12.7623 3.28617 13.3807L4.22883 12.438C3.60868 11.8178 3.15104 11.0543 2.89646 10.215C2.64188 9.37566 2.59821 8.48653 2.76932 7.62633C2.94044 6.76612 3.32105 5.96139 3.87745 5.28342C4.43386 4.60545 5.14887 4.07515 5.95916 3.73951C6.76946 3.40387 7.65002 3.27325 8.52286 3.3592C9.39569 3.44516 10.2339 3.74504 10.9631 4.23229C11.6924 4.71955 12.2902 5.37913 12.7037 6.15261C13.1171 6.92609 13.3335 7.78961 13.3335 8.66667ZM10.1955 5.52867L7.00017 8.33333L8.3335 9.66667L11.1382 6.47133L10.1955 5.52867Z" fill="#75A7B3"/>
</svg>
