<svg width="24" height="24" viewBox="0 0 24 24" fill="none" xmlns="http://www.w3.org/2000/svg">
<path d="M16.25 15.5C14.413 14.706 13.75 14 13.75 12C13.75 10 15 8.75 17 8.75C19 8.75 20.25 10 20.25 12C20.25 15.5 19.25 16.75 15.25 19.25C16.25 17.5 16.25 17 16.25 15.5ZM6.25 15.5C4.413 14.706 3.75 14 3.75 12C3.75 10 5 8.75 7 8.75C9 8.75 10.25 10 10.25 12C10.25 15.5 9.25 16.75 5.25 19.25C6.25 17.5 6.25 17 6.25 15.5Z" stroke="#333CF5" stroke-width="1.5" stroke-linecap="round" stroke-linejoin="round"/>
</svg>
