<svg width="24" height="24" viewBox="0 0 24 24" fill="none" xmlns="http://www.w3.org/2000/svg">
<path d="M17.0001 9.50012L17.6581 9.17112C19.6041 8.19812 20.5781 7.71112 21.2881 8.15112C22.0001 8.59112 22.0001 9.67912 22.0001 11.8541V12.1461C22.0001 14.3221 22.0001 15.4091 21.2891 15.8491C20.5771 16.2891 19.6041 15.8021 17.6591 14.8291L17.0001 14.5001V9.50012ZM13.5601 7.44012C13.7058 7.57793 13.8223 7.74353 13.9028 7.92714C13.9833 8.11075 14.0262 8.30864 14.029 8.50912C14.0317 8.70959 13.9942 8.90858 13.9188 9.09433C13.8433 9.28007 13.7313 9.44879 13.5895 9.59053C13.4477 9.73227 13.279 9.84414 13.0932 9.91953C12.9074 9.99492 12.7084 10.0323 12.5079 10.0295C12.3074 10.0266 12.1096 9.98364 11.926 9.90303C11.7424 9.82241 11.5769 9.70581 11.4391 9.56012C11.166 9.27709 11.015 8.89811 11.0186 8.50482C11.0222 8.11152 11.1802 7.73538 11.4584 7.45739C11.7366 7.17941 12.1129 7.02184 12.5062 7.01861C12.8995 7.01537 13.2774 7.16675 13.5601 7.44012Z" stroke="#757575" stroke-width="2"/>
<path d="M2 11.5C2 8.213 2 6.569 2.908 5.462C3.07409 5.25965 3.25965 5.07409 3.462 4.908C4.57 4 6.212 4 9.5 4C12.787 4 14.431 4 15.538 4.908C15.7404 5.07409 15.9259 5.25965 16.092 5.462C17 6.57 17 8.212 17 11.5V12.5C17 15.787 17 17.431 16.092 18.538C15.9259 18.7404 15.7404 18.9259 15.538 19.092C14.43 20 12.788 20 9.5 20C6.213 20 4.569 20 3.462 19.092C3.25965 18.9259 3.07409 18.7404 2.908 18.538C2 17.43 2 15.788 2 12.5V11.5Z" stroke="#757575" stroke-width="2"/>
</svg>
