<svg width="16" height="16" viewBox="0 0 16 16" fill="none" xmlns="http://www.w3.org/2000/svg">
<path d="M12.2732 8.18136L8.78772 6.89339L7.50381 3.4052C7.21774 2.62805 6.19765 2.45199 5.66764 3.08832C5.58901 3.18273 5.52713 3.2899 5.48469 3.4052L4.19266 6.89339L0.704477 8.17731C-0.072686 8.46338 -0.24873 9.48347 0.387595 10.0135C0.482002 10.0921 0.589177 10.154 0.704477 10.1964L4.19266 11.4885L5.47658 14.9766C5.76265 15.7538 6.78274 15.9298 7.31275 15.2935C7.39138 15.1991 7.45326 15.0919 7.4957 14.9766L8.78772 11.4885L12.2759 10.2045C13.0531 9.91847 13.2291 8.89838 12.5928 8.36837C12.4984 8.28973 12.3912 8.22786 12.2759 8.18541L12.2732 8.18136ZM8.17955 10.5573C8.03105 10.612 7.91398 10.7291 7.85925 10.8776L6.4902 14.5867L5.12384 10.8803C5.06918 10.7302 4.95094 10.6119 4.80083 10.5573L1.09438 9.19092L4.80083 7.82457C4.95094 7.76991 5.06918 7.65166 5.12384 7.50156L6.4902 3.79511L7.85654 7.50156C7.91128 7.65007 8.02835 7.76713 8.17685 7.82186L11.886 9.19092L8.17955 10.5573ZM8.65258 2.16319C8.65258 1.86463 8.89461 1.62259 9.19317 1.62259H10.2744V0.541401C10.2744 0.125251 10.7249 -0.134843 11.0853 0.0732325C11.2525 0.169801 11.3556 0.348264 11.3556 0.541401V1.62259H12.4367C12.8529 1.62259 13.113 2.07309 12.9049 2.43348C12.8083 2.60074 12.6299 2.70378 12.4367 2.70378H11.3556V3.78497C11.3556 4.20112 10.9051 4.46121 10.5447 4.25314C10.3774 4.15658 10.2744 3.97811 10.2744 3.78497V2.70378H9.19317C8.8946 2.70379 8.65258 2.46176 8.65258 2.16319ZM15.6803 5.40676C15.6803 5.70531 15.4383 5.94734 15.1397 5.94735H14.5991V6.48795C14.5991 6.9041 14.1486 7.16419 13.7882 6.95611C13.621 6.85955 13.5179 6.68108 13.5179 6.48795V5.94735H12.9773C12.5612 5.94737 12.3011 5.49689 12.5092 5.13648C12.6057 4.96921 12.7842 4.86616 12.9773 4.86616H13.5179V4.32556C13.5179 3.90941 13.9684 3.64932 14.3288 3.8574C14.4961 3.95396 14.5991 4.13243 14.5991 4.32556V4.86616H15.1397C15.4383 4.86616 15.6803 5.10819 15.6803 5.40676Z" fill="#333CF5"/>
</svg>
