<svg width="22" height="24" viewBox="0 0 22 24" fill="none" xmlns="http://www.w3.org/2000/svg">
<path d="M6.33662 24C6.16236 24 6.01556 23.9464 5.89622 23.8391C5.77794 23.7301 5.68289 23.5495 5.61107 23.2974L2.66455 13.2738H0V10.5922H3.16831C3.31194 10.5922 3.44606 10.661 3.57068 10.7987C3.69425 10.9345 3.78877 11.1169 3.85425 11.3457L6.33662 19.6827L11.9477 0.616805C12.0153 0.411219 12.1161 0.25658 12.2503 0.152893C12.3844 0.0492063 12.5254 -0.00174226 12.6732 4.54511e-05C12.8211 0.00183316 12.9584 0.0536752 13.0851 0.155574C13.2118 0.257474 13.3064 0.412111 13.3687 0.619485L16.3041 10.5922H21.3861V13.2738H15.8415C15.6673 13.2738 15.5205 13.2201 15.4011 13.1129C15.2829 13.0038 15.1878 12.8242 15.116 12.5739L12.6431 4.24763L7.02255 23.3001C6.95074 23.5504 6.85411 23.7292 6.73265 23.8364C6.61015 23.9455 6.47813 24 6.33662 24Z" fill="white"/>
</svg>
