<svg width="15" height="16" viewBox="0 0 15 16" fill="none" xmlns="http://www.w3.org/2000/svg">
<path d="M4.22441 16C4.10824 16 4.01037 15.9642 3.93081 15.8927C3.85196 15.82 3.78859 15.6997 3.74072 15.5316L1.77636 8.84918H0V7.06147H2.11221C2.20796 7.06147 2.29738 7.10735 2.38046 7.19912C2.46283 7.2897 2.52585 7.41126 2.5695 7.56382L4.22441 13.1218L7.96513 0.411204C8.01019 0.274146 8.07743 0.171054 8.16684 0.101929C8.25626 0.0328042 8.35025 -0.0011615 8.44882 3.03007e-05C8.54739 0.0012221 8.63892 0.0357834 8.72341 0.103716C8.8079 0.171649 8.87091 0.274741 8.91245 0.41299L10.8694 7.06147H14.2574V8.84918H10.561C10.4449 8.84918 10.347 8.81342 10.2674 8.74191C10.1886 8.66921 10.1252 8.54944 10.0773 8.38258L8.42875 2.83176L4.6817 15.5334C4.63383 15.7003 4.5694 15.8194 4.48844 15.891C4.40676 15.9637 4.31876 16 4.22441 16Z" fill="#333CF5"/>
</svg>
