<svg width="20" height="20" viewBox="0 0 20 20" fill="none" xmlns="http://www.w3.org/2000/svg">
<path d="M5.75 0.75H3.25C1.86929 0.75 0.75 1.86929 0.75 3.25V5.75C0.75 7.13071 1.86929 8.25 3.25 8.25H5.75C7.13071 8.25 8.25 7.13071 8.25 5.75V3.25C8.25 1.86929 7.13071 0.75 5.75 0.75Z" stroke="white" stroke-width="1.5" stroke-linecap="round" stroke-linejoin="round"/>
<path d="M16.75 0.75H14.25C12.8693 0.75 11.75 1.86929 11.75 3.25V5.75C11.75 7.13071 12.8693 8.25 14.25 8.25H16.75C18.1307 8.25 19.25 7.13071 19.25 5.75V3.25C19.25 1.86929 18.1307 0.75 16.75 0.75Z" stroke="white" stroke-width="1.5" stroke-linecap="round" stroke-linejoin="round"/>
<path d="M5.75 11.75H3.25C1.86929 11.75 0.75 12.8693 0.75 14.25V16.75C0.75 18.1307 1.86929 19.25 3.25 19.25H5.75C7.13071 19.25 8.25 18.1307 8.25 16.75V14.25C8.25 12.8693 7.13071 11.75 5.75 11.75Z" stroke="white" stroke-width="1.5" stroke-linecap="round" stroke-linejoin="round"/>
<path d="M6 4.5C6 3.67157 5.32843 3 4.5 3C3.67157 3 3 3.67157 3 4.5C3 5.32843 3.67157 6 4.5 6C5.32843 6 6 5.32843 6 4.5Z" fill="white"/>
<path d="M17 4.5C17 3.67157 16.3284 3 15.5 3C14.6716 3 14 3.67157 14 4.5C14 5.32843 14.6716 6 15.5 6C16.3284 6 17 5.32843 17 4.5Z" fill="white"/>
<path d="M6 15.5C6 14.6716 5.32843 14 4.5 14C3.67157 14 3 14.6716 3 15.5C3 16.3284 3.67157 17 4.5 17C5.32843 17 6 16.3284 6 15.5Z" fill="white"/>
<path d="M14 12.5C14 11.6716 13.3284 11 12.5 11C11.6716 11 11 11.6716 11 12.5C11 13.3284 11.6716 14 12.5 14C13.3284 14 14 13.3284 14 12.5Z" fill="white"/>
<path d="M17 15.5C17 14.6716 16.3284 14 15.5 14C14.6716 14 14 14.6716 14 15.5C14 16.3284 14.6716 17 15.5 17C16.3284 17 17 16.3284 17 15.5Z" fill="white"/>
<path d="M20 18.5C20 17.6716 19.3284 17 18.5 17C17.6716 17 17 17.6716 17 18.5C17 19.3284 17.6716 20 18.5 20C19.3284 20 20 19.3284 20 18.5Z" fill="white"/>
<path d="M20 12.5C20 11.6716 19.3284 11 18.5 11C17.6716 11 17 11.6716 17 12.5C17 13.3284 17.6716 14 18.5 14C19.3284 14 20 13.3284 20 12.5Z" fill="white"/>
<path d="M14 18.5C14 17.6716 13.3284 17 12.5 17C11.6716 17 11 17.6716 11 18.5C11 19.3284 11.6716 20 12.5 20C13.3284 20 14 19.3284 14 18.5Z" fill="white"/>
</svg>
