<svg width="20" height="20" viewBox="0 0 20 20" fill="none" xmlns="http://www.w3.org/2000/svg">
<path d="M5.75 0.75H3.25C1.86929 0.75 0.75 1.86929 0.75 3.25V5.75C0.75 7.13071 1.86929 8.25 3.25 8.25H5.75C7.13071 8.25 8.25 7.13071 8.25 5.75V3.25C8.25 1.86929 7.13071 0.75 5.75 0.75Z" stroke="#757575" stroke-width="1.5" stroke-linecap="round" stroke-linejoin="round"/>
<path d="M16.75 0.75H14.25C12.8693 0.75 11.75 1.86929 11.75 3.25V5.75C11.75 7.13071 12.8693 8.25 14.25 8.25H16.75C18.1307 8.25 19.25 7.13071 19.25 5.75V3.25C19.25 1.86929 18.1307 0.75 16.75 0.75Z" stroke="#757575" stroke-width="1.5" stroke-linecap="round" stroke-linejoin="round"/>
<path d="M5.75 11.75H3.25C1.86929 11.75 0.75 12.8693 0.75 14.25V16.75C0.75 18.1307 1.86929 19.25 3.25 19.25H5.75C7.13071 19.25 8.25 18.1307 8.25 16.75V14.25C8.25 12.8693 7.13071 11.75 5.75 11.75Z" stroke="#757575" stroke-width="1.5" stroke-linecap="round" stroke-linejoin="round"/>
<path d="M4.5 4C4.77614 4 5 4.22386 5 4.5C5 4.77614 4.77614 5 4.5 5C4.22386 5 4 4.77614 4 4.5C4 4.22386 4.22386 4 4.5 4Z" fill="#757575" stroke="#757575" stroke-width="2"/>
<path d="M15.5 4C15.7761 4 16 4.22386 16 4.5C16 4.77614 15.7761 5 15.5 5C15.2239 5 15 4.77614 15 4.5C15 4.22386 15.2239 4 15.5 4Z" fill="#757575" stroke="#757575" stroke-width="2"/>
<path d="M4.5 15C4.77614 15 5 15.2239 5 15.5C5 15.7761 4.77614 16 4.5 16C4.22386 16 4 15.7761 4 15.5C4 15.2239 4.22386 15 4.5 15Z" fill="#757575" stroke="#757575" stroke-width="2"/>
<path d="M12.5 12C12.7761 12 13 12.2239 13 12.5C13 12.7761 12.7761 13 12.5 13C12.2239 13 12 12.7761 12 12.5C12 12.2239 12.2239 12 12.5 12Z" fill="#757575" stroke="#757575" stroke-width="2"/>
<path d="M15.5 15C15.7761 15 16 15.2239 16 15.5C16 15.7761 15.7761 16 15.5 16C15.2239 16 15 15.7761 15 15.5C15 15.2239 15.2239 15 15.5 15Z" fill="#757575" stroke="#757575" stroke-width="2"/>
<path d="M18.5 18C18.7761 18 19 18.2239 19 18.5C19 18.7761 18.7761 19 18.5 19C18.2239 19 18 18.7761 18 18.5C18 18.2239 18.2239 18 18.5 18Z" fill="#757575" stroke="#757575" stroke-width="2"/>
<path d="M18.5 12C18.7761 12 19 12.2239 19 12.5C19 12.7761 18.7761 13 18.5 13C18.2239 13 18 12.7761 18 12.5C18 12.2239 18.2239 12 18.5 12Z" fill="#757575" stroke="#757575" stroke-width="2"/>
<path d="M12.5 18C12.7761 18 13 18.2239 13 18.5C13 18.7761 12.7761 19 12.5 19C12.2239 19 12 18.7761 12 18.5C12 18.2239 12.2239 18 12.5 18Z" fill="#757575" stroke="#757575" stroke-width="2"/>
</svg>
