<svg width="24" height="24" viewBox="0 0 24 24" fill="none" xmlns="http://www.w3.org/2000/svg">
<path d="M16.9992 9.5L17.6572 9.171C19.6032 8.198 20.5772 7.711 21.2872 8.151C21.9992 8.591 21.9992 9.679 21.9992 11.854V12.146C21.9992 14.322 21.9992 15.409 21.2882 15.849C20.5762 16.289 19.6032 15.802 17.6582 14.829L16.9992 14.5V9.5ZM13.5592 7.44C13.7048 7.57781 13.8213 7.74341 13.9018 7.92702C13.9824 8.11063 14.0253 8.30852 14.028 8.509C14.0307 8.70947 13.9933 8.90846 13.9178 9.0942C13.8423 9.27995 13.7304 9.44867 13.5886 9.59041C13.4468 9.73215 13.278 9.84402 13.0922 9.91941C12.9064 9.9948 12.7074 10.0322 12.5069 10.0293C12.3065 10.0265 12.1086 9.98352 11.925 9.9029C11.7414 9.82229 11.5759 9.70569 11.4382 9.56C11.1651 9.27697 11.014 8.89799 11.0176 8.5047C11.0212 8.1114 11.1792 7.73525 11.4574 7.45727C11.7357 7.17929 12.112 7.02171 12.5053 7.01848C12.8986 7.01525 13.2764 7.16663 13.5592 7.44Z" stroke="#757575" stroke-width="2"/>
<path d="M2 11.5C2 8.213 2 6.569 2.908 5.462C3.07409 5.25965 3.25965 5.07409 3.462 4.908C4.57 4 6.212 4 9.5 4C12.787 4 14.431 4 15.538 4.908C15.7404 5.07409 15.9259 5.25965 16.092 5.462C17 6.57 17 8.212 17 11.5V12.5C17 15.787 17 17.431 16.092 18.538C15.9259 18.7404 15.7404 18.9259 15.538 19.092C14.43 20 12.788 20 9.5 20C6.213 20 4.569 20 3.462 19.092C3.25965 18.9259 3.07409 18.7404 2.908 18.538C2 17.43 2 15.788 2 12.5V11.5Z" stroke="#757575" stroke-width="2"/>
</svg>
