<svg width="24" height="24" viewBox="0 0 24 24" fill="none" xmlns="http://www.w3.org/2000/svg">
<path d="M16.9992 9.50012L17.6572 9.17112C19.6032 8.19812 20.5772 7.71112 21.2872 8.15112C21.9992 8.59112 21.9992 9.67912 21.9992 11.8541V12.1461C21.9992 14.3221 21.9992 15.4091 21.2882 15.8491C20.5762 16.2891 19.6032 15.8021 17.6582 14.8291L16.9992 14.5001V9.50012ZM13.5592 7.44012C13.7048 7.57793 13.8213 7.74353 13.9018 7.92714C13.9824 8.11075 14.0253 8.30864 14.028 8.50912C14.0307 8.70959 13.9933 8.90858 13.9178 9.09433C13.8423 9.28007 13.7304 9.44879 13.5886 9.59053C13.4468 9.73227 13.278 9.84414 13.0922 9.91953C12.9064 9.99492 12.7074 10.0323 12.5069 10.0295C12.3065 10.0266 12.1086 9.98364 11.925 9.90303C11.7414 9.82241 11.5759 9.70581 11.4382 9.56012C11.1651 9.27709 11.014 8.89811 11.0176 8.50482C11.0212 8.11152 11.1792 7.73538 11.4574 7.45739C11.7357 7.17941 12.112 7.02184 12.5053 7.01861C12.8986 7.01537 13.2764 7.16675 13.5592 7.44012Z" stroke="white" stroke-width="1.75"/>
<path d="M2 11.5C2 8.213 2 6.569 2.908 5.462C3.07409 5.25965 3.25965 5.07409 3.462 4.908C4.57 4 6.212 4 9.5 4C12.787 4 14.431 4 15.538 4.908C15.7404 5.07409 15.9259 5.25965 16.092 5.462C17 6.57 17 8.212 17 11.5V12.5C17 15.787 17 17.431 16.092 18.538C15.9259 18.7403 15.7404 18.9259 15.538 19.092C14.43 20 12.788 20 9.5 20C6.213 20 4.569 20 3.462 19.092C3.25965 18.9259 3.07409 18.7403 2.908 18.538C2 17.43 2 15.788 2 12.5V11.5Z" stroke="white" stroke-width="1.75"/>
</svg>
