<svg width="24" height="24" viewBox="0 0 24 24" fill="none" xmlns="http://www.w3.org/2000/svg">
<path d="M21.7887 2.21197C23.2046 3.62796 24 5.54841 24 7.55086C24 9.55331 23.2046 11.4738 21.7887 12.8898L12.8903 21.7881C11.4743 23.2042 9.55381 23.9999 7.55122 24C5.54863 24.0001 3.62802 23.2047 2.21189 21.7887C0.795757 20.3728 0.000118014 18.4523 1.31273e-08 16.4497C-0.000117988 14.4471 0.795295 12.5265 2.21126 11.1103L11.1096 2.21197C11.8108 1.5107 12.6432 0.954409 13.5594 0.574876C14.4755 0.195344 15.4575 0 16.4491 0C17.4408 0 18.4228 0.195344 19.3389 0.574876C20.2551 0.954409 21.0875 1.5107 21.7887 2.21197ZM14.6697 16.4486L7.55204 9.32965L3.99068 12.891C3.0642 13.8386 2.5488 15.1134 2.55634 16.4386C2.56387 17.7639 3.09372 19.0327 4.03091 19.9697C4.9681 20.9067 6.23701 21.4364 7.56226 21.4437C8.88751 21.451 10.1622 20.9353 11.1096 20.0087L14.6697 16.4486ZM20.008 3.99139C19.5406 3.52394 18.9856 3.15313 18.3749 2.90015C17.7642 2.64716 17.1096 2.51695 16.4485 2.51695C15.7875 2.51695 15.1329 2.64716 14.5221 2.90015C13.9114 3.15313 13.3565 3.52394 12.889 3.99139L9.33146 7.55023L16.4504 14.6692L20.008 11.1103C20.4754 10.6429 20.8462 10.088 21.0992 9.47724C21.3522 8.8665 21.4824 8.21192 21.4824 7.55086C21.4824 6.8898 21.3522 6.23521 21.0992 5.62448C20.8462 5.01374 20.4754 4.45882 20.008 3.99139Z" fill="white"/>
</svg>
