<svg width="24" height="24" viewBox="0 0 24 24" fill="none" xmlns="http://www.w3.org/2000/svg">
<path d="M16.4492 1C17.3095 1.00001 18.1613 1.16977 18.9561 1.49902C19.7508 1.82824 20.4728 2.31067 21.0811 2.91895C22.3094 4.14739 23 5.81356 23 7.55078C23 9.28803 22.3094 10.9542 21.0811 12.1826L12.1836 21.0811C10.9552 22.3096 9.28816 22.9999 7.55078 23C5.81365 23 4.14742 22.3102 2.91895 21.082C1.69036 19.8536 1.0001 18.1866 1 16.4492C1 14.7121 1.68976 13.0459 2.91797 11.8174L11.8164 2.91895C12.4247 2.31055 13.1476 1.82829 13.9424 1.49902C14.7372 1.1698 15.5889 1 16.4492 1ZM3.2832 12.1836L3.27539 12.1924C2.16508 13.3282 1.54761 14.856 1.55664 16.4443C1.56568 18.0328 2.20085 19.5536 3.32422 20.6768C4.44755 21.7998 5.96821 22.4346 7.55664 22.4434C9.04605 22.4516 10.4823 21.9091 11.5918 20.9258L11.8086 20.7236L16.084 16.4482L8.25879 8.62305L7.55176 7.91504L3.2832 12.1836ZM16.4482 1.5166C15.656 1.51664 14.8716 1.67338 14.1396 1.97656C13.4076 2.2798 12.7419 2.72386 12.1816 3.28418L8.62402 6.84277L7.91699 7.55078L8.62402 8.25781L15.7432 15.376L16.4502 16.084L17.1572 15.376L20.7148 11.8174C21.2751 11.2572 21.7202 10.5923 22.0234 9.86035C22.3267 9.12829 22.4824 8.34317 22.4824 7.55078C22.4824 6.75859 22.3265 5.97409 22.0234 5.24219C21.7202 4.51012 21.2752 3.84447 20.7148 3.28418C20.1547 2.72403 19.4897 2.27977 18.7578 1.97656C18.0257 1.67332 17.2406 1.5166 16.4482 1.5166Z" fill="#6B7280" stroke="#757575" stroke-width="2"/>
</svg>
