<svg width="17" height="16" viewBox="0 0 17 16" fill="none" xmlns="http://www.w3.org/2000/svg">
<path d="M4.87099 13.5444L14.1934 7.99053L8.19057 7.43956L10.7031 1.80341L2.08682 7.91312L7.30176 8.39177L4.87099 13.5444ZM5.33095 9.24467L0.851346 8.83351C0.444154 8.79614 0.178718 8.64945 0.0550378 8.39343C-0.0686427 8.13742 0.0153491 7.91045 0.307013 7.71255L10.8015 0.245214C10.9905 0.114389 11.2044 0.035815 11.4433 0.00949137C11.6821 -0.0168322 11.9204 0.0126183 12.1581 0.0978433C12.3958 0.183068 12.5529 0.30225 12.6295 0.455387C12.7061 0.608525 12.7084 0.768283 12.6364 0.93466L10.1539 6.58597L15.5354 7.07991C15.9556 7.11848 16.2212 7.27484 16.3322 7.54899C16.4442 7.82323 16.3373 8.05807 16.0114 8.25353L4.72768 14.9744C4.53581 15.0877 4.32239 15.1519 4.08741 15.1668C3.8516 15.181 3.63143 15.1446 3.42689 15.0576C3.22219 14.9713 3.07796 14.8557 2.9942 14.7109C2.91145 14.5661 2.90658 14.4106 2.9796 14.2443L5.33095 9.24467Z" fill="#D0791D"/>
</svg>
