<svg width="26" height="26" viewBox="0 0 26 26" fill="none" xmlns="http://www.w3.org/2000/svg">
<path d="M22.8994 2.87177C22.3129 2.19911 21.6167 1.6655 20.8503 1.30144C20.084 0.937383 19.2626 0.75 18.4331 0.75C17.6035 0.75 16.7821 0.937383 16.0158 1.30144C15.2494 1.6655 14.5532 2.19911 13.9667 2.87177L12.7497 4.26714L11.5326 2.87177C10.3481 1.51368 8.74152 0.750704 7.06633 0.750704C5.39114 0.750704 3.78455 1.51368 2.60001 2.87177C1.41547 4.22987 0.75 6.07185 0.75 7.99249C0.75 9.91313 1.41547 11.7551 2.60001 13.1132L3.81705 14.5086L12.7497 24.75L21.6823 14.5086L22.8994 13.1132C23.4861 12.4409 23.9515 11.6426 24.269 10.7639C24.5866 9.88531 24.75 8.94356 24.75 7.99249C24.75 7.04142 24.5866 6.09967 24.269 5.22104C23.9515 4.34241 23.4861 3.54412 22.8994 2.87177Z" stroke="#3D46F5" stroke-width="1.5" stroke-linecap="round" stroke-linejoin="round"/>
</svg>
