<svg width="16" height="16" viewBox="0 0 16 16" fill="none" xmlns="http://www.w3.org/2000/svg">
<path d="M6.00049 9.16675C8.23788 9.16681 9.24698 9.80351 9.70752 10.3298C9.94314 10.5993 10.0577 10.8642 10.1138 11.0564C10.1419 11.1529 10.1554 11.2312 10.1616 11.281C10.1647 11.3058 10.166 11.3235 10.1665 11.3328V12.1667H1.8335V11.3328C1.83403 11.3235 1.83529 11.3058 1.83838 11.281C1.84461 11.2312 1.85809 11.1529 1.88623 11.0564C1.94234 10.8641 2.05761 10.5994 2.29346 10.3298C2.75402 9.80348 3.76287 9.16675 6.00049 9.16675ZM5.64209 3.2019C5.9977 3.13117 6.36668 3.16765 6.70166 3.3064C7.03663 3.44515 7.32346 3.67975 7.5249 3.9812C7.72629 4.28259 7.83343 4.63728 7.8335 4.99976C7.8335 5.48599 7.6402 5.95281 7.29639 6.29663C6.95266 6.64028 6.48653 6.83365 6.00049 6.83374C5.63792 6.83374 5.28341 6.72558 4.98193 6.52417C4.68047 6.32274 4.44492 6.03686 4.30615 5.7019C4.16739 5.36691 4.13092 4.99797 4.20166 4.64233C4.27239 4.28678 4.44731 3.96022 4.70361 3.70386C4.95992 3.44755 5.2866 3.27269 5.64209 3.2019ZM9.99756 3.16675H10.0005C10.4866 3.16683 10.9526 3.36013 11.2964 3.70386C11.6401 4.04759 11.8334 4.51365 11.8335 4.99976C11.8335 5.48599 11.6402 5.95281 11.2964 6.29663C10.9527 6.64028 10.4865 6.83365 10.0005 6.83374H9.99756C9.79931 6.83463 9.60396 6.80049 9.41846 6.73706C9.69099 6.20115 9.83643 5.60637 9.83643 4.99976C9.83637 4.39305 9.69112 3.7984 9.41846 3.26245C9.6039 3.19907 9.79938 3.16586 9.99756 3.16675ZM12.5005 11.324L12.4995 11.3142C12.4765 10.7235 12.3249 10.1445 12.0542 9.6189C12.0073 9.52777 11.9554 9.43931 11.9019 9.35229C12.9341 9.60241 13.4785 10.037 13.77 10.4041C13.9736 10.6604 14.0732 10.9068 14.1216 11.0837C14.1458 11.1722 14.1573 11.243 14.1626 11.2878L14.1665 11.3337V12.1667H12.5005V11.324Z" fill="white" stroke="#757575"/>
</svg>
