<svg width="16" height="16" viewBox="0 0 16 16" fill="none" xmlns="http://www.w3.org/2000/svg">
<path d="M8 0.421421L8.21013 0.0340583C8.14373 0.0115872 8.07224 0 8 0C7.92776 0 7.85627 0.0115872 7.78987 0.0340583L8 0.421421ZM8 15.5791L7.73547 15.9446C7.81603 15.9809 7.90722 16 8 16C8.09279 16 8.18397 15.9809 8.26453 15.9446L8 15.5791ZM7.7888 0.0340583L0.9696 2.34139L1.38987 3.11612L8.21013 0.808784L7.7888 0.0340583ZM1.85135e-08 3.50348V9.27855H1.06667V3.50348H1.85135e-08ZM3.49333 14.0313L7.73547 15.9446L8.26453 15.2136L4.0224 13.2995L3.49333 14.0313ZM8.26453 15.9446L12.5067 14.0313L11.9776 13.2995L7.73547 15.2136L8.26453 15.9446ZM16 9.27855V3.50348H14.9333V9.28024L16 9.27855ZM15.0293 2.34223L8.21013 0.0340583L7.78987 0.808784L14.6101 3.11612L15.0293 2.34223ZM16 3.50348C15.9998 3.2563 15.9077 3.01376 15.7351 2.80749C15.5626 2.60123 15.3172 2.43946 15.0293 2.34223L14.6101 3.11612C14.7061 3.14861 14.7879 3.20263 14.8454 3.2715C14.9028 3.34036 14.9334 3.42102 14.9333 3.50348H16ZM12.5067 14.0313C13.568 13.5525 14.45 12.8607 15.0635 12.0261C15.677 11.1914 16.0001 10.2436 16 9.27855H14.9333C14.9333 10.095 14.6599 10.8969 14.1408 11.603C13.6218 12.3092 12.8755 12.8944 11.9776 13.2995L12.5067 14.0313ZM1.85135e-08 9.27855C-8.9296e-05 10.2436 0.322982 11.1914 0.936467 12.0261C1.54995 12.8607 2.43204 13.5525 3.49333 14.0313L4.0224 13.2995C3.12452 12.8944 2.37824 12.3092 1.85918 11.603C1.34011 10.8969 1.0667 10.095 1.06667 9.27855H1.85135e-08ZM0.970667 2.34223C0.682801 2.43946 0.437395 2.60123 0.264856 2.80749C0.092317 3.01376 0.000228391 3.2563 1.85135e-08 3.50348H1.06667C1.06667 3.33506 1.19467 3.18349 1.38987 3.11612L0.970667 2.34223Z" fill="#D0791D"/>
</svg>
