<svg width="16" height="16" viewBox="0 0 16 16" fill="none" xmlns="http://www.w3.org/2000/svg">
<path d="M11 3.33333V2M5 3.33333V2M2.16667 5.33333H13.8333M2 6.696C2 5.286 2 4.58067 2.29067 4.042C2.5535 3.56154 2.96133 3.17634 3.456 2.94133C4.02667 2.66667 4.77333 2.66667 6.26667 2.66667H9.73333C11.2267 2.66667 11.9733 2.66667 12.544 2.94133C13.046 3.18267 13.4533 3.568 13.7093 4.04133C14 4.58133 14 5.28667 14 6.69667V9.97133C14 11.3813 14 12.0867 13.7093 12.6253C13.4465 13.1058 13.0387 13.491 12.544 13.726C11.9733 14 11.2267 14 9.73333 14H6.26667C4.77333 14 4.02667 14 3.456 13.7253C2.96143 13.4905 2.55361 13.1055 2.29067 12.6253C2 12.0853 2 11.38 2 9.97V6.696Z" stroke="white" stroke-linecap="round" stroke-linejoin="round"/>
</svg>
