<svg width="18" height="18" viewBox="0 0 18 18" fill="none" xmlns="http://www.w3.org/2000/svg">
<path d="M6.64746 5V3C6.64746 2.46957 6.84578 1.96086 7.19879 1.58579C7.5518 1.21071 8.03058 1 8.52981 1H15.118C15.6173 1 16.0961 1.21071 16.4491 1.58579C16.8021 1.96086 17.0004 2.46957 17.0004 3V15C17.0004 15.5304 16.8021 16.0391 16.4491 16.4142C16.0961 16.7893 15.6173 17 15.118 17H8.52981C8.03058 17 7.5518 16.7893 7.19879 16.4142C6.84578 16.0391 6.64746 15.5304 6.64746 15V13" stroke="white" stroke-width="2" stroke-linecap="round" stroke-linejoin="round"/>
<path d="M1 9H13.2353M13.2353 9L10.4118 6M13.2353 9L10.4118 12" stroke="white" stroke-width="2" stroke-linecap="round" stroke-linejoin="round"/>
</svg>
