<svg width="16" height="16" viewBox="0 0 16 16" fill="none" xmlns="http://www.w3.org/2000/svg">
<path d="M7.46 0.906504L2.79333 2.97984C2.31333 3.19317 2 3.67317 2 4.19984V7.33317C2 11.0332 4.56 14.4932 8 15.3332C11.44 14.4932 14 11.0332 14 7.33317V4.19984C14 3.67317 13.6867 3.19317 13.2067 2.97984L8.54 0.906504C8.2 0.753171 7.8 0.753171 7.46 0.906504ZM6.19333 10.8598L4.46667 9.13317C4.40495 9.07145 4.35599 8.99818 4.32258 8.91753C4.28918 8.83689 4.27199 8.75046 4.27199 8.66317C4.27199 8.57588 4.28918 8.48945 4.32258 8.40881C4.35599 8.32817 4.40495 8.25489 4.46667 8.19317C4.52839 8.13145 4.60166 8.08249 4.6823 8.04909C4.76295 8.01568 4.84938 7.99849 4.93667 7.99849C5.02395 7.99849 5.11039 8.01568 5.19103 8.04909C5.27167 8.08249 5.34495 8.13145 5.40667 8.19317L6.66667 9.4465L10.5867 5.5265C10.6484 5.46478 10.7217 5.41582 10.8023 5.38242C10.8829 5.34902 10.9694 5.33182 11.0567 5.33182C11.144 5.33182 11.2304 5.34902 11.311 5.38242C11.3917 5.41582 11.4649 5.46478 11.5267 5.5265C11.5884 5.58823 11.6373 5.6615 11.6708 5.74214C11.7042 5.82278 11.7213 5.90922 11.7213 5.9965C11.7213 6.08379 11.7042 6.17022 11.6708 6.25087C11.6373 6.33151 11.5884 6.40478 11.5267 6.4665L7.13333 10.8598C7.07166 10.9216 6.9984 10.9707 6.91775 11.0041C6.8371 11.0376 6.75065 11.0548 6.66333 11.0548C6.57602 11.0548 6.48957 11.0376 6.40892 11.0041C6.32827 10.9707 6.25501 10.9216 6.19333 10.8598Z" fill="#15A96D"/>
</svg>
