<svg width="16" height="16" viewBox="0 0 16 16" fill="none" xmlns="http://www.w3.org/2000/svg">
<path d="M8 15.5805C5.778 15.5805 3.889 14.8025 2.333 13.2465C0.777 11.6905 -0.000666238 9.8018 4.28266e-07 7.58046C4.28266e-07 5.9338 0.471001 4.42213 1.413 3.04546C2.35567 1.66746 3.69233 0.676462 5.423 0.0724622C5.627 0.00112887 5.80567 -0.017538 5.959 0.016462C6.11233 0.050462 6.23933 0.116796 6.34 0.215462C6.44067 0.314129 6.50467 0.440795 6.532 0.595462C6.55867 0.750795 6.53767 0.913796 6.469 1.08446C6.33967 1.40246 6.24567 1.72446 6.187 2.05046C6.12833 2.37646 6.09933 2.7198 6.1 3.08046C6.1 4.85846 6.722 6.36946 7.966 7.61346C9.21 8.85746 10.7213 9.4798 12.5 9.48046C12.9653 9.48046 13.391 9.43113 13.777 9.33246C14.1637 9.2338 14.493 9.1538 14.765 9.09246C14.9103 9.0658 15.0433 9.06913 15.164 9.10246C15.2847 9.1358 15.381 9.19446 15.453 9.27846C15.5317 9.3618 15.585 9.46446 15.613 9.58646C15.6397 9.70846 15.6237 9.84746 15.565 10.0035C15.0883 11.6368 14.154 12.9745 12.762 14.0165C11.37 15.0585 9.78267 15.5798 8 15.5805ZM8 14.5805C9.46667 14.5805 10.7833 14.1761 11.95 13.3675C13.1167 12.5588 13.9667 11.5048 14.5 10.2055C14.1667 10.2888 13.8333 10.3555 13.5 10.4055C13.1667 10.4555 12.8333 10.4805 12.5 10.4805C10.45 10.4805 8.704 9.7598 7.262 8.31846C5.82 6.87713 5.09933 5.13113 5.1 3.08046C5.1 2.74713 5.125 2.4138 5.175 2.08046C5.225 1.74713 5.29167 1.4138 5.375 1.08046C4.075 1.6138 3.02067 2.4638 2.212 3.63046C1.40333 4.79713 0.999334 6.1138 1 7.58046C1 9.51379 1.68333 11.1638 3.05 12.5305C4.41667 13.8971 6.06667 14.5805 8 14.5805Z" fill="#757575"/>
</svg>
