<svg width="16" height="16" viewBox="0 0 16 16" fill="none" xmlns="http://www.w3.org/2000/svg">
<path d="M5.16683 1.8335H3.50016C2.57969 1.8335 1.8335 2.57969 1.8335 3.50016V5.16683C1.8335 6.0873 2.57969 6.8335 3.50016 6.8335H5.16683C6.0873 6.8335 6.8335 6.0873 6.8335 5.16683V3.50016C6.8335 2.57969 6.0873 1.8335 5.16683 1.8335Z" stroke="white" stroke-width="1.5" stroke-linecap="round" stroke-linejoin="round"/>
<path d="M12.5003 1.8335H10.8337C9.91318 1.8335 9.16699 2.57969 9.16699 3.50016V5.16683C9.16699 6.0873 9.91318 6.8335 10.8337 6.8335H12.5003C13.4208 6.8335 14.167 6.0873 14.167 5.16683V3.50016C14.167 2.57969 13.4208 1.8335 12.5003 1.8335Z" stroke="white" stroke-width="1.5" stroke-linecap="round" stroke-linejoin="round"/>
<path d="M5.16683 9.16699H3.50016C2.57969 9.16699 1.8335 9.91318 1.8335 10.8337V12.5003C1.8335 13.4208 2.57969 14.167 3.50016 14.167H5.16683C6.0873 14.167 6.8335 13.4208 6.8335 12.5003V10.8337C6.8335 9.91318 6.0873 9.16699 5.16683 9.16699Z" stroke="white" stroke-width="1.5" stroke-linecap="round" stroke-linejoin="round"/>
<path d="M5.3335 4.3335C5.3335 3.78121 4.88578 3.3335 4.3335 3.3335C3.78121 3.3335 3.3335 3.78121 3.3335 4.3335C3.3335 4.88578 3.78121 5.3335 4.3335 5.3335C4.88578 5.3335 5.3335 4.88578 5.3335 4.3335Z" fill="white"/>
<path d="M12.667 4.3335C12.667 3.78121 12.2193 3.3335 11.667 3.3335C11.1147 3.3335 10.667 3.78121 10.667 4.3335C10.667 4.88578 11.1147 5.3335 11.667 5.3335C12.2193 5.3335 12.667 4.88578 12.667 4.3335Z" fill="white"/>
<path d="M5.3335 11.667C5.3335 11.1147 4.88578 10.667 4.3335 10.667C3.78121 10.667 3.3335 11.1147 3.3335 11.667C3.3335 12.2193 3.78121 12.667 4.3335 12.667C4.88578 12.667 5.3335 12.2193 5.3335 11.667Z" fill="white"/>
<path d="M10.667 9.66699C10.667 9.11471 10.2193 8.66699 9.66699 8.66699C9.11471 8.66699 8.66699 9.11471 8.66699 9.66699C8.66699 10.2193 9.11471 10.667 9.66699 10.667C10.2193 10.667 10.667 10.2193 10.667 9.66699Z" fill="white"/>
<path d="M12.667 11.667C12.667 11.1147 12.2193 10.667 11.667 10.667C11.1147 10.667 10.667 11.1147 10.667 11.667C10.667 12.2193 11.1147 12.667 11.667 12.667C12.2193 12.667 12.667 12.2193 12.667 11.667Z" fill="white"/>
<path d="M14.667 13.667C14.667 13.1147 14.2193 12.667 13.667 12.667C13.1147 12.667 12.667 13.1147 12.667 13.667C12.667 14.2193 13.1147 14.667 13.667 14.667C14.2193 14.667 14.667 14.2193 14.667 13.667Z" fill="white"/>
<path d="M14.667 9.66699C14.667 9.11471 14.2193 8.66699 13.667 8.66699C13.1147 8.66699 12.667 9.11471 12.667 9.66699C12.667 10.2193 13.1147 10.667 13.667 10.667C14.2193 10.667 14.667 10.2193 14.667 9.66699Z" fill="white"/>
<path d="M10.667 13.667C10.667 13.1147 10.2193 12.667 9.66699 12.667C9.11471 12.667 8.66699 13.1147 8.66699 13.667C8.66699 14.2193 9.11471 14.667 9.66699 14.667C10.2193 14.667 10.667 14.2193 10.667 13.667Z" fill="white"/>
</svg>
