<svg width="17" height="17" viewBox="0 0 17 17" fill="none" xmlns="http://www.w3.org/2000/svg">
<path d="M15.2662 1.91452C14.8753 1.46607 14.4111 1.11034 13.9002 0.867629C13.3893 0.624922 12.8417 0.5 12.2887 0.5C11.7357 0.5 11.1881 0.624922 10.6772 0.867629C10.1663 1.11034 9.70211 1.46607 9.31116 1.91452L8.4998 2.84476L7.68843 1.91452C6.89874 1.00912 5.82768 0.500469 4.71089 0.500469C3.59409 0.500469 2.52303 1.00912 1.73334 1.91452C0.943646 2.81992 0.5 4.0479 0.5 5.32833C0.5 6.60875 0.943646 7.83674 1.73334 8.74214L2.5447 9.67238L8.4998 16.5L14.4549 9.67238L15.2662 8.74214C15.6574 8.29391 15.9677 7.76171 16.1794 7.17596C16.391 6.5902 16.5 5.96237 16.5 5.32833C16.5 4.69428 16.391 4.06645 16.1794 3.4807C15.9677 2.89494 15.6574 2.36275 15.2662 1.91452Z" stroke="white" stroke-linecap="round" stroke-linejoin="round"/>
</svg>
