<svg width="18" height="13" viewBox="0 0 18 13" fill="none" xmlns="http://www.w3.org/2000/svg">
<g clip-path="url(#clip0_2_2487)">
<path fill-rule="evenodd" clip-rule="evenodd" d="M9.79507 12.045C9.58413 12.2557 9.29819 12.374 9.00007 12.374C8.70194 12.374 8.416 12.2557 8.20507 12.045L3.96157 7.80304C3.75062 7.59199 3.63215 7.30579 3.63222 7.0074C3.63229 6.709 3.75089 6.42286 3.96194 6.21191C4.17299 6.00097 4.45919 5.8825 4.75758 5.88257C5.05597 5.88264 5.34212 6.00124 5.55307 6.21229L9.00007 9.65929L12.4471 6.21229C12.6591 6.00726 12.9433 5.89373 13.2382 5.89615C13.5332 5.89858 13.8154 6.01676 14.0241 6.22524C14.2328 6.43373 14.3513 6.71584 14.354 7.01081C14.3567 7.30578 14.2434 7.59002 14.0386 7.80229L9.79582 12.0458L9.79507 12.045Z" fill="#757575"/>
</g>
<defs>
<clipPath id="clip0_2_2487">
<rect width="18" height="18" fill="white" transform="matrix(0 1 -1 0 18 0)"/>
</clipPath>
</defs>
</svg>
